<svg width="16" height="16" viewBox="0 0 16 16" fill="none" xmlns="http://www.w3.org/2000/svg">
<path d="M10.54 2C10.8288 2.00139 11.1107 2.08839 11.35 2.25C11.6087 2.43636 11.7949 2.70653 11.8769 3.01462C11.9589 3.3227 11.9318 3.64968 11.8 3.94L10.83 6.11L13.62 6.11C13.8491 6.10573 14.0755 6.15941 14.2783 6.26605C14.4811 6.37269 14.6537 6.52884 14.78 6.72C14.907 6.9138 14.982 7.13704 14.9978 7.36822C15.0136 7.5994 14.9695 7.83075 14.87 8.04C14.2 9.49 13 12.11 12.6 13.21C12.5022 13.4735 12.3263 13.7009 12.0958 13.8618C11.8652 14.0226 11.5911 14.1092 11.31 14.11L2.38 14.11C2.01217 14.1047 1.66119 13.9549 1.40295 13.6929C1.14471 13.431 0.999959 13.0779 0.999996 12.71L0.999997 9.2C0.999997 9.01878 1.03569 8.83933 1.10504 8.6719C1.17439 8.50447 1.27604 8.35234 1.40419 8.22419C1.53233 8.09605 1.68446 7.9944 1.85189 7.92505C2.01932 7.85569 2.19877 7.82 2.38 7.82L3.76 7.82L9.6 2.36C9.85837 2.12844 10.193 2.00026 10.54 2V2ZM11.31 13.11C11.3881 13.1092 11.4642 13.0849 11.5284 13.0404C11.5926 12.9958 11.6419 12.9329 11.67 12.86C12.07 11.77 13.14 9.41 14 7.62C14.0289 7.56441 14.044 7.50267 14.044 7.44C14.044 7.37733 14.0289 7.31559 14 7.26C13.9584 7.20045 13.9002 7.15447 13.8326 7.1278C13.765 7.10113 13.6911 7.09494 13.62 7.11L10.32 7.11L9.8 6.43L9.8 5.97L10.89 3.53C10.9262 3.45034 10.9331 3.36041 10.9093 3.27619C10.8855 3.19197 10.8326 3.11892 10.76 3.07C10.6922 3.01477 10.6074 2.98462 10.52 2.98462C10.4326 2.98462 10.3478 3.01477 10.28 3.07L4.22 8.66L3.75 8.79L2.38 8.79C2.32747 8.78984 2.27547 8.80056 2.2273 8.82151C2.17912 8.84245 2.13582 8.87316 2.10011 8.91169C2.0644 8.95021 2.03707 8.99573 2.01983 9.04535C2.0026 9.09498 1.99585 9.14763 2 9.2L2 12.71C1.99987 12.8127 2.03925 12.9115 2.11 12.986C2.18074 13.0605 2.27741 13.1049 2.38 13.11L11.31 13.11Z" fill="#F7F7F7"/>
</svg>
